<svg id="레이어_1" data-name="레이어 1" xmlns="http://www.w3.org/2000/svg" viewBox="0 0 66.05 66.05"><defs><style>.cls-1{fill:#fff;}.cls-2{fill:#5b5a57;}.cls-3{fill:#565f6e;}.cls-4{fill:#d6ddeb;}.cls-5{fill:#9a6032;}</style></defs><title>무제-1</title><g id="_517_Analytics_graph_presentation" data-name="517, Analytics, graph, presentation"><rect class="cls-1" width="66.05" height="66.05"/><path class="cls-2" d="M25.67,10.35a.76.76,0,0,1-.77-.77V7.26a.77.77,0,0,1,.77-.78.78.78,0,0,1,.78.78V9.58A.77.77,0,0,1,25.67,10.35Z" transform="translate(7.35 8.35)"/><path class="cls-2" d="M19.22,34.54a.77.77,0,0,0-1.09.07l-6.2,7a.79.79,0,0,0,.07,1.1.78.78,0,0,0,1.09-.07l6.19-7A.78.78,0,0,0,19.22,34.54Z" transform="translate(7.35 8.35)"/><path class="cls-2" d="M37.86,41.57l-6.19-7a.77.77,0,0,0-1.09-.07.79.79,0,0,0-.07,1.1l6.19,7a.79.79,0,0,0,1.1.07A.79.79,0,0,0,37.86,41.57Z" transform="translate(7.35 8.35)"/><path class="cls-2" d="M24.9,34.35a.77.77,0,0,0-.78.77v7a.78.78,0,0,0,.78.77.77.77,0,0,0,.77-.77v-7A.76.76,0,0,0,24.9,34.35Z" transform="translate(7.35 8.35)"/><polygon class="cls-3" points="48.51 17.93 48.51 21.03 17.54 21.03 17.54 17.93 33.02 17.93 48.51 17.93"/><polygon class="cls-4" points="48.51 21.03 48.51 44.25 38.44 44.25 32.25 44.25 26.06 44.25 17.54 44.25 17.54 21.03 48.51 21.03"/><path class="cls-5" d="M25.67,28.93h-.05a.79.79,0,0,1-.56-.3l-4.8-6.17-4,5.39A.78.78,0,0,1,15,26.92l4.64-6.2a.83.83,0,0,1,.62-.31.76.76,0,0,1,.61.3L25.74,27l7.12-7.12a.78.78,0,0,1,1.22.15l2.32,3.87a.77.77,0,0,1-1.33.79l-1.81-3-7,7A.76.76,0,0,1,25.67,28.93Z" transform="translate(7.35 8.35)"/></g></svg>