<svg xmlns="http://www.w3.org/2000/svg" width="56.68mm" height="59.21mm" viewBox="0 0 160.66 167.84">
  <defs>
    <style>
      .cls-1 {
        fill: #444a4c;
      }
    </style>
  </defs>
  <title>자산 10</title>
  <g id="레이어_2" data-name="레이어 2">
    <g id="Layer_1" data-name="Layer 1">
      <path class="cls-1" d="M159.92,53.06a2.48,2.48,0,0,0-2.78-.5L130.82,64.37V2.5a2.5,2.5,0,0,0-2.5-2.5H52.09a2.5,2.5,0,0,0-1.75.71L.75,49.12h0a1.87,1.87,0,0,0-.29.34l0,0a2.3,2.3,0,0,0-.23.44h0a2.54,2.54,0,0,0-.14.47,2.06,2.06,0,0,0,0,.26c0,.08,0,.15,0,.23H0v96.32a2.5,2.5,0,0,0,2.5,2.5H41.75L55.2,166.88a2.51,2.51,0,0,0,1.76,1h.2a2.55,2.55,0,0,0,1.7-.66l88-81a2.67,2.67,0,0,0,.6-.8l0-.07,13-29.5A2.49,2.49,0,0,0,159.92,53.06ZM51.48,6.59V48.53L8.63,48.42ZM5,53.41l49,.12h0a2.49,2.49,0,0,0,2.5-2.5V5h69.34V67.14L42,144.73H5ZM57.46,161.66,46.35,147.5l7.27-6.73L64.27,155.4ZM68,152,57.31,137.35l70-64.74,2.42,6.59a2.53,2.53,0,0,0,1.3,1.41L140.7,85ZM143.9,81,134,76.5l-2.55-6.94,21.78-9.78Z"/>
    </g>
  </g>
</svg>
