<svg id="레이어_1" data-name="레이어 1" xmlns="http://www.w3.org/2000/svg" width="27.34" height="28.4" viewBox="0 0 27.34 28.4">
  <defs>
    <style>
      .cls-1 {
        fill: none;
        stroke: #191919;
        stroke-linecap: round;
        stroke-linejoin: round;
        stroke-width: 2px;
      }
    </style>
  </defs>
  <title>대지 1</title>
  <g>
    <path class="cls-1" d="M19.38,20.66v3.28a3.28,3.28,0,0,1-.25,1.25,3.13,3.13,0,0,1-1.7,1.7,3.1,3.1,0,0,1-1.25.25H6.88a3,3,0,0,1-1.24-.25,3.09,3.09,0,0,1-1-.68,3.23,3.23,0,0,1-.69-1,3.28,3.28,0,0,1-.25-1.25V5.35A3.28,3.28,0,0,1,3.93,4.1a3.23,3.23,0,0,1,.69-1,3.09,3.09,0,0,1,1-.68,3,3,0,0,1,1.24-.26h9.3a3.11,3.11,0,0,1,1.25.26,3.13,3.13,0,0,1,1.7,1.7,3.28,3.28,0,0,1,.25,1.25V8.63"/>
    <line class="cls-1" x1="10.41" y1="5.35" x2="12.65" y2="5.35"/>
  </g>
  <g>
    <polyline class="cls-1" points="22.69 13.16 10.82 13.16 14.1 9.88"/>
    <line class="cls-1" x1="18.58" y1="16.58" x2="22.69" y2="16.58"/>
  </g>
</svg>
