<svg width="18" height="18" viewBox="0 0 18 18" fill="none" xmlns="http://www.w3.org/2000/svg">
<g clip-path="url(#clip0_1_3414)">
<path d="M9.00006 2.69305C5.51474 2.69305 2.69312 5.51468 2.69312 9C2.69312 12.4853 5.51821 15.307 9.00006 15.307C12.4819 15.307 15.307 12.4819 15.307 9C15.307 5.51815 12.4819 2.69305 9.00006 2.69305ZM8.60393 5.83784C8.70817 5.76487 8.84369 5.72664 9.01396 5.72664C9.18424 5.72664 9.31976 5.76487 9.424 5.83784C9.52825 5.91081 9.5769 6.03591 9.56995 6.21313L9.44138 9.85483C9.43443 10.0182 9.38925 10.1328 9.30238 10.1988C9.21551 10.2614 9.11821 10.2961 9.01049 10.2961C8.90277 10.2961 8.80895 10.2649 8.7186 10.1988C8.63173 10.1363 8.58308 10.0216 8.5796 9.85483L8.45103 6.21313C8.44408 6.03939 8.4962 5.91429 8.59698 5.83784H8.60393ZM9.44485 11.8598C9.32671 11.978 9.18424 12.0336 9.01396 12.0336C8.84369 12.0336 8.70122 11.9745 8.58308 11.8598C8.46493 11.7417 8.40933 11.5992 8.40933 11.429C8.40933 11.2587 8.4684 11.1162 8.58308 10.9981C8.70122 10.8799 8.84369 10.8243 9.01396 10.8243C9.18424 10.8243 9.32671 10.8834 9.44485 10.9981C9.563 11.1162 9.6186 11.2587 9.6186 11.429C9.6186 11.5992 9.55952 11.7417 9.44485 11.8598Z" fill="white"/>
</g>
<defs>
<clipPath id="clip0_1_3414">
<rect width="18" height="18" fill="white"/>
</clipPath>
</defs>
</svg>
